<svg width="120" height="120" viewBox="0 0 120 120" fill="none" xmlns="http://www.w3.org/2000/svg">
<g clip-path="url(#clip0_70_129)">
<path fill-rule="evenodd" clip-rule="evenodd" d="M60 103.5C84.0244 103.5 103.5 84.0244 103.5 60C103.5 35.9756 84.0244 16.5 60 16.5C35.9756 16.5 16.5 35.9756 16.5 60C16.5 84.0244 35.9756 103.5 60 103.5ZM105 60C105 84.8528 84.8528 105 60 105C35.1472 105 15 84.8528 15 60C15 35.1472 35.1472 15 60 15C84.8528 15 105 35.1472 105 60Z" fill="#FFF308" fill-opacity="0.2"/>
<path fill-rule="evenodd" clip-rule="evenodd" d="M59.75 97.5C80.5988 97.5 97.5 80.5988 97.5 59.75C97.5 38.9013 80.5988 22 59.75 22C38.9013 22 22 38.9013 22 59.75C22 80.5988 38.9013 97.5 59.75 97.5ZM99.5 59.75C99.5 81.7033 81.7033 99.5 59.75 99.5C37.7967 99.5 20 81.7033 20 59.75C20 37.7967 37.7967 20 59.75 20C81.7033 20 99.5 37.7967 99.5 59.75Z" fill="#FFF308" fill-opacity="0.6"/>
<path fill-rule="evenodd" clip-rule="evenodd" d="M59.75 93.5C78.3896 93.5 93.5 78.3896 93.5 59.75C93.5 41.1104 78.3896 26 59.75 26C41.1104 26 26 41.1104 26 59.75C26 78.3896 41.1104 93.5 59.75 93.5Z" fill="#FFEC65"/>
</g>
<defs>
<clipPath id="clip0_70_129">
<rect width="90" height="90" fill="white" transform="translate(15 15)"/>
</clipPath>
</defs>
</svg>
