<svg width="120" height="120" viewBox="0 0 120 120" fill="none" xmlns="http://www.w3.org/2000/svg">
<path d="M90.6904 87.479C91.9322 86.1991 90.7324 84.1672 88.9536 84.3046C87.8744 84.388 86.7838 84.4304 85.6832 84.4304C62.5771 84.4304 43.8459 65.714 43.8459 42.626C43.8459 35.5249 45.6178 28.8373 48.744 22.9806C49.5849 21.4052 48.199 19.4917 46.5279 20.124C30.9512 26.018 19.875 41.082 19.875 58.7352C19.875 81.5251 38.3351 100 61.1069 100C72.7122 100 83.1976 95.2016 90.6904 87.479Z" fill="#777777"/>
<path fill-rule="evenodd" clip-rule="evenodd" d="M73.7192 32.3832C73.5191 32.0977 73.2601 31.6752 72.4773 30.5793C72.4936 30.5956 68.7298 25.7603 68.7298 25.7603C68.2667 25.1654 68.3839 25.0662 68.9866 25.5349C68.9866 25.5349 73.7875 29.269 73.7875 29.269C74.8642 30.0381 75.2976 30.3082 75.5869 30.511C75.8723 30.3108 76.2948 30.0518 77.3908 29.269C77.3745 29.2853 82.2097 25.5215 82.2097 25.5215C82.8047 25.0585 82.9038 25.1757 82.4351 25.7783C82.4351 25.7783 78.701 30.5793 78.701 30.5793C77.932 31.6559 77.6618 32.0893 77.4591 32.3786C77.6592 32.6641 77.9182 33.0865 78.701 34.1825C78.6847 34.1662 82.4485 39.0015 82.4485 39.0015C82.9116 39.5964 82.7944 39.6956 82.1917 39.2269L77.3908 35.4928C76.3141 34.7237 75.8807 34.4535 75.5914 34.2508C75.306 34.4509 74.8835 34.7099 73.7875 35.4928C73.8038 35.4765 68.9686 39.2403 68.9686 39.2403C68.3736 39.7033 68.2744 39.5861 68.7432 38.9835L72.4773 34.1825C73.2463 33.1058 73.5165 32.6725 73.7192 32.3832Z" fill="white"/>
<path fill-rule="evenodd" clip-rule="evenodd" d="M95.0897 57.7304C95.0973 57.738 93.3428 55.4841 93.3428 55.4841C93.1253 55.2046 93.1789 55.1568 93.4602 55.3756L95.7013 57.1187C96.2039 57.4777 96.4062 57.6038 96.5412 57.6985C96.6745 57.6051 96.8717 57.4842 97.3833 57.1187C97.3757 57.1263 99.6296 55.3719 99.6296 55.3719C99.9091 55.1544 99.9568 55.2079 99.738 55.4893L97.995 57.7304C97.636 58.233 97.5098 58.4353 97.4152 58.5703C97.5086 58.7036 97.6295 58.9008 97.995 59.4124C97.9873 59.4048 99.7418 61.6587 99.7418 61.6587C99.9593 61.9382 99.9058 61.9859 99.6244 61.7671L97.3833 60.024C96.8807 59.665 96.6784 59.5389 96.5434 59.4442C96.4101 59.5377 96.2129 59.6586 95.7013 60.024C95.7089 60.0164 93.455 61.7709 93.455 61.7709C93.1755 61.9884 93.1278 61.9348 93.3466 61.6535L95.0897 59.4124C95.4487 58.9098 95.5748 58.7075 95.6694 58.5724C95.576 58.4392 95.4551 58.242 95.0897 57.7304Z" fill="white"/>
</svg>
