<svg width="120" height="120" viewBox="0 0 120 120" fill="none" xmlns="http://www.w3.org/2000/svg">
<g clip-path="url(#clip0_70_123)">
<path fill-rule="evenodd" clip-rule="evenodd" d="M60 103.5C84.0244 103.5 103.5 84.0244 103.5 60C103.5 35.9756 84.0244 16.5 60 16.5C35.9756 16.5 16.5 35.9756 16.5 60C16.5 84.0244 35.9756 103.5 60 103.5ZM105 60C105 84.8528 84.8528 105 60 105C35.1472 105 15 84.8528 15 60C15 35.1472 35.1472 15 60 15C84.8528 15 105 35.1472 105 60Z" fill="#FFF308" fill-opacity="0.2"/>
<path fill-rule="evenodd" clip-rule="evenodd" d="M59.75 97.5C80.5988 97.5 97.5 80.5988 97.5 59.75C97.5 38.9013 80.5988 22 59.75 22C38.9013 22 22 38.9013 22 59.75C22 80.5988 38.9013 97.5 59.75 97.5ZM99.5 59.75C99.5 81.7033 81.7033 99.5 59.75 99.5C37.7967 99.5 20 81.7033 20 59.75C20 37.7967 37.7967 20 59.75 20C81.7033 20 99.5 37.7967 99.5 59.75Z" fill="#FFF308" fill-opacity="0.6"/>
<path fill-rule="evenodd" clip-rule="evenodd" d="M59.75 93.5C78.3896 93.5 93.5 78.3896 93.5 59.75C93.5 41.1104 78.3896 26 59.75 26C41.1104 26 26 41.1104 26 59.75C26 78.3896 41.1104 93.5 59.75 93.5Z" fill="#FFEC65"/>
</g>
<path d="M104.572 45.6765C104.58 45.4519 104.583 45.2264 104.583 45C104.583 33.9543 95.6104 25 84.5417 25C75.7612 25 68.2995 30.6347 65.5897 38.4784C63.6436 37.4649 61.4305 36.8919 59.0833 36.8919C51.3053 36.8919 45 43.1841 45 50.9459C45 58.7078 51.3053 65 59.0833 65L84.5687 65H99.7083C105.392 65 110 60.4018 110 54.7297C110 50.8132 107.803 47.4087 104.572 45.6765Z" fill="white"/>
<path d="M46.6598 81.2997C46.6644 81.1607 46.6667 81.0211 46.6667 80.881C46.6667 74.0431 41.1449 68.5 34.3334 68.5C28.93 68.5 24.3382 71.9882 22.6706 76.8437C21.473 76.2164 20.1111 75.8616 18.6667 75.8616C13.8802 75.8616 10 79.7568 10 84.5618C10 89.3667 13.8802 93.2619 18.6667 93.2619L34.3499 93.2619H43.6667C47.1645 93.2619 50 90.4154 50 86.9041C50 84.4796 48.6481 82.3721 46.6598 81.2997Z" fill="white"/>
<defs>
<clipPath id="clip0_70_123">
<rect width="90" height="90" fill="white" transform="translate(15 15)"/>
</clipPath>
</defs>
</svg>
