<svg width="120" height="120" viewBox="0 0 120 120" fill="none" xmlns="http://www.w3.org/2000/svg">
<path d="M97.4531 29.8213C97.4566 29.7146 97.4584 29.6075 97.4584 29.5C97.4584 24.2533 93.248 20 88.0542 20C83.9341 20 80.4329 22.6765 79.1613 26.4022C78.2481 25.9208 77.2097 25.6486 76.1083 25.6486C72.4587 25.6486 69.5 28.6374 69.5 32.3243C69.5 36.0112 72.4587 39 76.1083 39L88.0668 39H95.1708C97.8379 39 100 36.8159 100 34.1216C100 32.2613 98.9692 30.6442 97.4531 29.8213Z" fill="white"/>
<path d="M90.6904 87.479C91.9322 86.1991 90.7324 84.1672 88.9536 84.3046C87.8744 84.388 86.7838 84.4304 85.6832 84.4304C62.5771 84.4304 43.8459 65.714 43.8459 42.626C43.8459 35.5249 45.6178 28.8373 48.744 22.9806C49.5849 21.4052 48.199 19.4917 46.5279 20.124C30.9512 26.018 19.875 41.082 19.875 58.7352C19.875 81.5251 38.3351 100 61.1069 100C72.7122 100 83.1976 95.2016 90.6904 87.479Z" fill="#777777"/>
<path d="M46.6598 81.2997C46.6644 81.1607 46.6667 81.0211 46.6667 80.881C46.6667 74.0431 41.1449 68.5 34.3334 68.5C28.93 68.5 24.3382 71.9882 22.6706 76.8437C21.473 76.2164 20.1111 75.8616 18.6667 75.8616C13.8802 75.8616 10 79.7568 10 84.5618C10 89.3667 13.8802 93.2619 18.6667 93.2619L34.3499 93.2619H43.6667C47.1645 93.2619 50 90.4154 50 86.9041C50 84.4796 48.6481 82.3721 46.6598 81.2997Z" fill="white"/>
</svg>
