<svg width="120" height="120" viewBox="0 0 120 120" fill="none" xmlns="http://www.w3.org/2000/svg">
<path d="M102.484 50.7994C102.495 50.4866 102.5 50.1725 102.5 49.8571C102.5 34.4721 90.076 22 74.75 22C62.5925 22 52.2609 29.8484 48.5088 40.7734C45.8142 39.3618 42.7499 38.5637 39.5 38.5637C28.7305 38.5637 20 47.3279 20 58.139C20 68.9501 28.7305 77.7143 39.5 77.7143H74.75C74.7625 77.7143 74.7749 77.7143 74.7874 77.7143H95.75C103.62 77.7143 110 71.3097 110 63.4092C110 57.9541 106.958 53.2122 102.484 50.7994Z" fill="#505050"/>
<path d="M92.4845 62.7994C92.4948 62.4866 92.5001 62.1725 92.5001 61.8571C92.5001 46.4721 80.076 34 64.75 34C52.5925 34 42.2609 41.8484 38.5088 52.7734C35.8142 51.3618 32.7499 50.5637 29.5 50.5637C18.7305 50.5637 10 59.3279 10 70.139C10 80.9501 18.7305 89.7143 29.5 89.7143H64.7874H85.75C93.6201 89.7143 100 83.3097 100 75.4092C100 69.9541 96.9583 65.2122 92.4845 62.7994Z" fill="#777777"/>
</svg>
