<svg width="120" height="120" viewBox="0 0 120 120" fill="none" xmlns="http://www.w3.org/2000/svg">
<path d="M97.4845 49.0666C97.4948 48.7508 97.5001 48.4337 97.5001 48.1154C97.5001 32.5823 85.076 19.9904 69.75 19.9904C57.5925 19.9904 47.2609 27.9142 43.5088 38.9443C40.8142 37.5191 37.7499 36.7133 34.5 36.7133C23.7305 36.7133 15 45.5617 15 56.4768C15 67.3919 23.7305 76.2403 34.5 76.2403L69.75 76.2403C69.7625 76.2403 69.7749 76.2403 69.7874 76.2403H90.75C98.6201 76.2403 105 69.7742 105 61.7978C105 56.2902 101.958 51.5026 97.4845 49.0666Z" fill="white"/>
<path fill-rule="evenodd" clip-rule="evenodd" d="M35.1348 83.3548C35.5615 82.0417 36.9719 81.3231 38.285 81.7497C39.5982 82.1764 40.3168 83.5868 39.8901 84.8999L35.4887 98.4462C35.062 99.7594 33.6516 100.478 32.3385 100.051C31.0253 99.6247 30.3067 98.2143 30.7334 96.9011L35.1348 83.3548ZM48.351 81.7497C47.0379 81.3231 45.6275 82.0417 45.2009 83.3548L36.6826 109.571C36.2559 110.885 36.9745 112.295 38.2877 112.722C39.6008 113.148 41.0112 112.43 41.4379 111.117L49.9561 84.8999C50.3828 83.5868 49.6642 82.1764 48.351 81.7497ZM78.4409 81.7497C77.1278 81.3231 75.7174 82.0417 75.2907 83.3548L66.7724 109.571C66.3457 110.885 67.0644 112.295 68.3775 112.722C69.6906 113.148 71.101 112.43 71.5277 111.117L80.046 84.8999C80.4727 83.5868 79.754 82.1764 78.4409 81.7497ZM55.267 83.3548C55.6937 82.0417 57.1041 81.3231 58.4172 81.7497C59.7303 82.1764 60.449 83.5868 60.0223 84.8999L53.5624 104.781C53.1358 106.095 51.7254 106.813 50.4122 106.386C49.0991 105.96 48.3805 104.549 48.8071 103.236L55.267 83.3548ZM88.3825 81.7497C87.0694 81.3231 85.659 82.0417 85.2324 83.3548L78.7725 103.236C78.3458 104.549 79.0644 105.96 80.3776 106.386C81.6907 106.813 83.1011 106.095 83.5278 104.781L89.9876 84.8999C90.4143 83.5868 89.6957 82.1764 88.3825 81.7497ZM68.4827 81.7497C67.1696 81.3231 65.7592 82.0417 65.3326 83.3548L60.9311 96.9011C60.5044 98.2143 61.2231 99.6247 62.5362 100.051C63.8493 100.478 65.2597 99.7594 65.6864 98.4462L70.0878 84.8999C70.5145 83.5868 69.7959 82.1764 68.4827 81.7497Z" fill="#B4F5F2"/>
</svg>
