<svg width="120" height="120" viewBox="0 0 120 120" fill="none" xmlns="http://www.w3.org/2000/svg">
<path d="M97.4845 49.0666C97.4948 48.7508 97.5001 48.4337 97.5001 48.1154C97.5001 32.5823 85.076 19.9904 69.75 19.9904C57.5925 19.9904 47.2609 27.9142 43.5088 38.9443C40.8142 37.5191 37.7499 36.7133 34.5 36.7133C23.7305 36.7133 15 45.5617 15 56.4768C15 67.3919 23.7305 76.2403 34.5 76.2403L69.75 76.2403C69.7625 76.2403 69.7749 76.2403 69.7874 76.2403H90.75C98.6201 76.2403 105 69.7742 105 61.7978C105 56.2902 101.958 51.5026 97.4845 49.0666Z" fill="white"/>
<path fill-rule="evenodd" clip-rule="evenodd" d="M50.785 81.7497C49.4719 81.3231 48.0615 82.0417 47.6348 83.3548L43.2334 96.9011C42.8067 98.2143 43.5253 99.6247 44.8385 100.051C46.1516 100.478 47.562 99.7594 47.9887 98.4462L52.3901 84.8999C52.8168 83.5868 52.0982 82.1764 50.785 81.7497ZM57.7013 83.3548C58.1279 82.0417 59.5383 81.3231 60.8514 81.7497C62.1646 82.1764 62.8832 83.5868 62.4565 84.8999L53.9382 111.117C53.5116 112.43 52.1012 113.148 50.7881 112.722C49.4749 112.295 48.7563 110.885 49.183 109.571L57.7013 83.3548ZM67.7672 83.3548C68.1938 82.0417 69.6042 81.3231 70.9174 81.7497C72.2305 82.1764 72.9491 83.5868 72.5225 84.8999L66.0626 104.781C65.6359 106.095 64.2255 106.813 62.9124 106.386C61.5993 105.96 60.8806 104.549 61.3073 103.236L67.7672 83.3548Z" fill="#B4F5F2"/>
</svg>
