<svg width="120" height="120" viewBox="0 0 120 120" fill="none" xmlns="http://www.w3.org/2000/svg">
<path fill-rule="evenodd" clip-rule="evenodd" d="M97.5001 48.1154C97.5001 48.4337 97.4948 48.7508 97.4845 49.0666C101.958 51.5026 105 56.2902 105 61.7978C105 68.7393 100.168 74.537 93.7274 75.9246L98.1926 67.5973C98.9338 66.3635 98.0452 64.7929 96.6058 64.7929H96.3018H92.5219C91.8229 64.7929 91.3395 64.0939 91.5863 63.4398L94.9252 54.5913C95.4711 53.1911 94.4383 51.6799 92.9354 51.6799H92.8183H77.6358H77.5694C76.5876 51.6799 75.7262 52.3341 75.4628 53.2798L69.2773 75.4809L69.0657 76.2403L34.5 76.2403C23.7305 76.2403 15 67.3919 15 56.4768C15 45.5617 23.7305 36.7133 34.5 36.7133C37.7499 36.7133 40.8142 37.5191 43.5088 38.9443C47.2609 27.9142 57.5925 19.9904 69.75 19.9904C85.076 19.9904 97.5001 32.5823 97.5001 48.1154Z" fill="white"/>
<path fill-rule="evenodd" clip-rule="evenodd" d="M35.1348 83.3548C35.5615 82.0417 36.9719 81.3231 38.285 81.7497C39.5982 82.1764 40.3168 83.5868 39.8901 84.8999L35.4887 98.4462C35.062 99.7594 33.6516 100.478 32.3385 100.051C31.0253 99.6247 30.3067 98.2143 30.7334 96.9011L35.1348 83.3548ZM48.3514 81.7497C47.0383 81.3231 45.6279 82.0417 45.2013 83.3548L36.683 109.571C36.2563 110.885 36.9749 112.295 38.2881 112.722C39.6012 113.148 41.0116 112.43 41.4382 111.117L49.9565 84.8999C50.3832 83.5868 49.6646 82.1764 48.3514 81.7497ZM58.4177 81.7498C57.1045 81.3232 55.6942 82.0418 55.2675 83.3549L48.8076 103.236C48.381 104.55 49.0996 105.96 50.4127 106.387C51.7259 106.813 53.1362 106.095 53.5629 104.781L60.0228 84.9C60.4494 83.5869 59.7308 82.1765 58.4177 81.7498ZM68.4831 81.7498C67.17 81.3232 65.7596 82.0418 65.3329 83.3549L60.9315 96.9012C60.5048 98.2144 61.2234 99.6248 62.5366 100.051C63.8497 100.478 65.2601 99.7595 65.6868 98.4463L70.0882 84.9C70.5149 83.5869 69.7962 82.1765 68.4831 81.7498Z" fill="#B4F5F2"/>
<path fill-rule="evenodd" clip-rule="evenodd" d="M78.865 54.6416C78.4126 54.6416 78.0165 54.9454 77.8992 55.3823L72.6441 74.9556C72.4736 75.5909 72.9522 76.2149 73.6099 76.2149H80.6646C81.2613 76.2149 81.7253 76.7342 81.6583 77.3272L79.7709 94.0293C79.6458 95.1357 81.1504 95.5876 81.6556 94.5954L94.7861 68.8126C95.1249 68.1473 94.6416 67.3588 93.895 67.3588H88.1281C87.419 67.3588 86.9351 66.6412 87.201 65.9839L91.2323 56.0165C91.4982 55.3592 91.0144 54.6416 90.3053 54.6416H78.865Z" fill="#FFF686"/>
</svg>
