<svg width="120" height="120" viewBox="0 0 120 120" fill="none" xmlns="http://www.w3.org/2000/svg">
<path fill-rule="evenodd" clip-rule="evenodd" d="M97.5001 47.8571C97.5001 48.1725 97.4948 48.4866 97.4845 48.7994C101.958 51.2122 105 55.9541 105 61.4092C105 69.3097 98.6201 75.7143 90.75 75.7143H69.7874H69.75H69.1826C69.5621 75.4503 71.935 73.801 72.5604 73.3879C73.772 74.2169 75.4013 74.3329 76.7587 73.5513C78.1335 72.7597 78.8484 71.264 78.7102 69.7832C79.5096 69.3142 79.5343 69.3621 79.5343 69.3621C81.4133 68.2801 82.0581 65.8766 80.9718 64C79.886 62.1243 77.479 61.4769 75.597 62.5606C75.597 62.5606 75.5089 62.6287 74.7448 63.0097C73.5358 62.1962 71.9195 62.0871 70.5714 62.8633C69.2073 63.6488 68.4929 65.1274 68.6168 66.597C67.9166 67.015 64.9373 68.8233 64.9373 68.8233C64.9373 68.8233 64.9453 64.9717 64.979 64.4432C66.2869 63.8047 67.1872 62.4649 67.1872 60.9146C67.1872 59.346 66.2632 57.9912 64.9283 57.3623C64.9478 56.6738 64.9373 56.4226 64.9373 56.4226C64.9373 54.2587 63.1727 52.5 61 52.5C58.8284 52.5 57.0627 54.2552 57.0627 56.4226C57.0627 56.4226 57.0724 56.5054 57.0662 57.3643C55.7338 57.9939 54.8128 59.3466 54.8128 60.9146C54.8128 62.4885 55.7429 63.847 57.085 64.4732C57.0483 65.5045 57.0627 68.8233 57.0627 68.8233C57.0627 68.8233 54.1257 67.094 53.3859 66.5703C53.4996 65.1096 52.7857 63.6448 51.4286 62.8633C50.0758 62.0844 48.4505 62.1981 47.2395 63.021C46.475 62.6364 46.403 62.5606 46.403 62.5606C44.524 61.4786 42.1145 62.1234 41.0282 64C39.9424 65.8757 40.5837 68.2784 42.4657 69.3621C42.4657 69.3621 42.6444 69.3616 43.2869 69.8091C43.1589 71.2815 43.8733 72.7636 45.2413 73.5513C46.6044 74.3362 48.2441 74.2148 49.4579 73.3747C49.8306 73.6751 52.8544 75.4403 53.3246 75.7143H34.5C23.7305 75.7143 15 66.9501 15 56.139C15 45.3279 23.7305 36.5637 34.5 36.5637C37.7499 36.5637 40.8142 37.3618 43.5088 38.7734C47.2609 27.8484 57.5925 20 69.75 20C85.076 20 97.5001 32.4721 97.5001 47.8571Z" fill="#777777"/>
<path fill-rule="evenodd" clip-rule="evenodd" d="M59.3654 87.9344V62.9585H58.8224C57.9186 62.9585 57.186 62.2274 57.186 61.3297C57.186 60.4301 57.9174 59.7008 58.8224 59.7008H59.3654V56.982C59.3654 56.0846 60.0991 55.3572 61 55.3572C61.9028 55.3572 62.6347 56.0889 62.6347 56.982V59.7008H63.1777C64.0815 59.7008 64.8141 60.4319 64.8141 61.3297C64.8141 62.2293 64.0827 62.9585 63.1777 62.9585H62.6347V87.9344H63.1777C64.0815 87.9344 64.8141 88.6655 64.8141 89.5633C64.8141 90.4629 64.0827 91.1921 63.1777 91.1921H62.6347V93.9109C62.6347 94.8083 61.901 95.5357 61 95.5357C60.0973 95.5357 59.3654 94.8041 59.3654 93.9109V91.1921H58.8224C57.9186 91.1921 57.186 90.461 57.186 89.5633C57.186 88.6637 57.9174 87.9344 58.8224 87.9344H59.3654Z" fill="white"/>
<path fill-rule="evenodd" clip-rule="evenodd" d="M50.9641 67.7919L72.6702 80.2798L72.9417 79.8112C73.3936 79.0312 74.3953 78.7645 75.1756 79.2134C75.9574 79.6632 76.2255 80.659 75.773 81.44L75.5014 81.9086L77.8643 83.2681C78.6442 83.7167 78.9096 84.7136 78.4591 85.4911C78.0077 86.2702 77.0059 86.5359 76.2297 86.0893L73.8668 84.7299L73.5953 85.1986C73.1434 85.9785 72.1417 86.2452 71.3615 85.7963C70.5796 85.3465 70.3116 84.3507 70.7641 83.5697L71.0356 83.1011L49.3295 70.6131L49.058 71.0818C48.6061 71.8617 47.6044 72.1284 46.8242 71.6795C46.0423 71.2297 45.7743 70.2339 46.2268 69.4529L46.4983 68.9843L44.1354 67.6249C43.3555 67.1762 43.0902 66.1793 43.5406 65.4018C43.992 64.6227 44.9938 64.357 45.77 64.8036L48.1329 66.163L48.4044 65.6944C48.8563 64.9144 49.858 64.6477 50.6383 65.0966C51.4201 65.5464 51.6882 66.5422 51.2356 67.3232L50.9641 67.7919Z" fill="white"/>
<path fill-rule="evenodd" clip-rule="evenodd" d="M72.6703 70.6131L50.9642 83.1011L51.2357 83.5697C51.6876 84.3497 51.4186 85.3475 50.6383 85.7964C49.8565 86.2461 48.857 85.9796 48.4045 85.1986L48.133 84.7299L45.7701 86.0893C44.9902 86.538 43.9912 86.2686 43.5407 85.4911C43.0893 84.712 43.3593 83.7146 44.1355 83.2681L46.4984 81.9087L46.2268 81.44C45.7749 80.6601 46.044 79.6623 46.8242 79.2134C47.6061 78.7636 48.6056 79.0302 49.0581 79.8112L49.3296 80.2798L71.0357 67.7919L70.7641 67.3232C70.3123 66.5433 70.5813 65.5455 71.3615 65.0966C72.1434 64.6468 73.1429 64.9134 73.5954 65.6944L73.8669 66.163L76.2298 64.8036C77.0096 64.3549 78.0087 64.6243 78.4592 65.4018C78.9106 66.1809 78.6406 67.1783 77.8644 67.6249L75.5015 68.9843L75.773 69.4529C76.2249 70.2329 75.9559 71.2307 75.1756 71.6796C74.3938 72.1294 73.3943 71.8628 72.9418 71.0818L72.6703 70.6131Z" fill="white"/>
</svg>
