<svg width="120" height="120" viewBox="0 0 120 120" fill="none" xmlns="http://www.w3.org/2000/svg">
<path d="M97.4845 48.7994C97.4948 48.4866 97.5001 48.1725 97.5001 47.8571C97.5001 32.4721 85.076 20 69.75 20C57.5925 20 47.2609 27.8484 43.5088 38.7734C40.8142 37.3618 37.7499 36.5637 34.5 36.5637C23.7305 36.5637 15 45.3279 15 56.139C15 66.9501 23.7305 75.7143 34.5 75.7143L69.75 75.7143C69.7625 75.7143 69.7749 75.7143 69.7874 75.7143H90.75C98.6201 75.7143 105 69.3097 105 61.4092C105 55.9541 101.958 51.2122 97.4845 48.7994Z" fill="white"/>
<path fill-rule="evenodd" clip-rule="evenodd" d="M28.5 82.5C28.5 81.1193 29.6193 80 31 80H88.5C89.8807 80 91 81.1193 91 82.5C91 83.8807 89.8807 85 88.5 85H31C29.6193 85 28.5 83.8807 28.5 82.5ZM28.5 92.5C28.5 91.1193 29.6193 90 31 90H88.5C89.8807 90 91 91.1193 91 92.5C91 93.8807 89.8807 95 88.5 95H31C29.6193 95 28.5 93.8807 28.5 92.5ZM31 100C29.6193 100 28.5 101.119 28.5 102.5C28.5 103.881 29.6193 105 31 105H88.5C89.8807 105 91 103.881 91 102.5C91 101.119 89.8807 100 88.5 100H31Z" fill="#777777"/>
</svg>
