<svg width="32" height="32" viewBox="0 0 32 32" fill="none" xmlns="http://www.w3.org/2000/svg">
<mask id="mask0_137_1917" style="mask-type:alpha" maskUnits="userSpaceOnUse" x="4" y="4" width="24" height="24">
<path d="M28 4H4V28H28V4Z" fill="white"/>
</mask>
<g mask="url(#mask0_137_1917)">
<path fill-rule="evenodd" clip-rule="evenodd" d="M16 27.6C22.4065 27.6 27.6 22.4065 27.6 16C27.6 9.59349 22.4065 4.4 16 4.4C9.59349 4.4 4.4 9.59349 4.4 16C4.4 22.4065 9.59349 27.6 16 27.6ZM28 16C28 22.6274 22.6274 28 16 28C9.37259 28 4 22.6274 4 16C4 9.37259 9.37259 4 16 4C22.6274 4 28 9.37259 28 16Z" fill="#FFF308" fill-opacity="0.2"/>
<path fill-rule="evenodd" clip-rule="evenodd" d="M15.9335 25.9999C21.4932 25.9999 26.0002 21.4929 26.0002 15.9333C26.0002 10.3736 21.4932 5.86659 15.9335 5.86659C10.3738 5.86659 5.86683 10.3736 5.86683 15.9333C5.86683 21.4929 10.3738 25.9999 15.9335 25.9999ZM26.5335 15.9333C26.5335 21.7875 21.7877 26.5333 15.9335 26.5333C10.0793 26.5333 5.3335 21.7875 5.3335 15.9333C5.3335 10.079 10.0793 5.33325 15.9335 5.33325C21.7877 5.33325 26.5335 10.079 26.5335 15.9333Z" fill="#FFF308" fill-opacity="0.6"/>
<path fill-rule="evenodd" clip-rule="evenodd" d="M15.9331 24.9334C20.9037 24.9334 24.9331 20.9039 24.9331 15.9334C24.9331 10.9628 20.9037 6.93335 15.9331 6.93335C10.9625 6.93335 6.93311 10.9628 6.93311 15.9334C6.93311 20.9039 10.9625 24.9334 15.9331 24.9334Z" fill="#FFEC65"/>
</g>
</svg>
