<svg width="32" height="32" viewBox="0 0 32 32" fill="none" xmlns="http://www.w3.org/2000/svg">
<path d="M24.1839 23.3276C24.5151 22.9863 24.1951 22.4445 23.7208 22.4811C23.433 22.5034 23.1422 22.5147 22.8487 22.5147C16.687 22.5147 11.692 17.5236 11.692 11.3668C11.692 9.47322 12.1646 7.68986 12.9982 6.12808C13.2224 5.70797 12.8529 5.1977 12.4072 5.36632C8.25346 6.93805 5.2998 10.9551 5.2998 15.6626C5.2998 21.7399 10.2225 26.6666 16.295 26.6666C19.3897 26.6666 22.1858 25.387 24.1839 23.3276Z" fill="#777777"/>
<path fill-rule="evenodd" clip-rule="evenodd" d="M19.6586 8.6356C19.6052 8.55946 19.5361 8.4468 19.3274 8.15456C19.3317 8.1589 18.328 6.86949 18.328 6.86949C18.2046 6.71085 18.2358 6.6844 18.3965 6.80938L19.6768 7.80514C19.9639 8.01024 20.0795 8.08226 20.1566 8.13634C20.2327 8.08296 20.3454 8.01389 20.6376 7.80514C20.6333 7.80949 21.9227 6.80581 21.9227 6.80581C22.0814 6.68234 22.1078 6.7136 21.9828 6.87429L20.987 8.15456C20.782 8.44165 20.7099 8.55722 20.6559 8.63437C20.7092 8.7105 20.7783 8.82314 20.987 9.11541C20.9827 9.11106 21.9864 10.4005 21.9864 10.4005C22.1099 10.5591 22.0786 10.5856 21.9179 10.4606L20.6376 9.46482C20.3505 9.25973 20.235 9.18768 20.1578 9.13362C20.0817 9.18698 19.969 9.25605 19.6768 9.46482C19.6811 9.46048 18.3917 10.4642 18.3917 10.4642C18.2331 10.5876 18.2066 10.5564 18.3316 10.3957L19.3274 9.11541C19.5324 8.82829 19.6045 8.71274 19.6586 8.6356Z" fill="white"/>
<path fill-rule="evenodd" clip-rule="evenodd" d="M25.3575 15.3949C25.3595 15.3969 24.8916 14.7958 24.8916 14.7958C24.8336 14.7213 24.8479 14.7086 24.9229 14.7669L25.5206 15.2317C25.6546 15.3275 25.7085 15.3611 25.7445 15.3863C25.7801 15.3614 25.8327 15.3292 25.9691 15.2317C25.9671 15.2338 26.5681 14.7659 26.5681 14.7659C26.6427 14.7079 26.6554 14.7222 26.597 14.7972L26.1322 15.3949C26.0365 15.5289 26.0028 15.5828 25.9776 15.6188C26.0025 15.6544 26.0348 15.707 26.1322 15.8434C26.1302 15.8414 26.598 16.4424 26.598 16.4424C26.656 16.5169 26.6418 16.5297 26.5667 16.4713L25.9691 16.0065C25.8351 15.9107 25.7811 15.8771 25.7451 15.8519C25.7096 15.8768 25.657 15.909 25.5206 16.0065C25.5226 16.0045 24.9216 16.4723 24.9216 16.4723C24.847 16.5303 24.8343 16.516 24.8927 16.441L25.3575 15.8434C25.4532 15.7094 25.4868 15.6554 25.5121 15.6194C25.4872 15.5839 25.4549 15.5313 25.3575 15.3949Z" fill="white"/>
</svg>
