<svg width="32" height="32" viewBox="0 0 32 32" fill="none" xmlns="http://www.w3.org/2000/svg">
<mask id="mask0_137_1932" style="mask-type:alpha" maskUnits="userSpaceOnUse" x="4" y="4" width="24" height="24">
<path d="M28 4H4V28H28V4Z" fill="white"/>
</mask>
<g mask="url(#mask0_137_1932)">
<path fill-rule="evenodd" clip-rule="evenodd" d="M16 27.6C22.4065 27.6 27.6 22.4065 27.6 16C27.6 9.59349 22.4065 4.4 16 4.4C9.59349 4.4 4.4 9.59349 4.4 16C4.4 22.4065 9.59349 27.6 16 27.6ZM28 16C28 22.6274 22.6274 28 16 28C9.37259 28 4 22.6274 4 16C4 9.37259 9.37259 4 16 4C22.6274 4 28 9.37259 28 16Z" fill="#FFF308" fill-opacity="0.2"/>
<path fill-rule="evenodd" clip-rule="evenodd" d="M15.9335 26C21.4932 26 26.0002 21.4931 26.0002 15.9334C26.0002 10.3737 21.4932 5.86671 15.9335 5.86671C10.3738 5.86671 5.86683 10.3737 5.86683 15.9334C5.86683 21.4931 10.3738 26 15.9335 26ZM26.5335 15.9334C26.5335 21.7876 21.7877 26.5334 15.9335 26.5334C10.0793 26.5334 5.3335 21.7876 5.3335 15.9334C5.3335 10.0792 10.0793 5.33337 15.9335 5.33337C21.7877 5.33337 26.5335 10.0792 26.5335 15.9334Z" fill="#FFF308" fill-opacity="0.6"/>
<path fill-rule="evenodd" clip-rule="evenodd" d="M15.9331 24.9334C20.9037 24.9334 24.9331 20.9039 24.9331 15.9334C24.9331 10.9628 20.9037 6.93335 15.9331 6.93335C10.9625 6.93335 6.93311 10.9628 6.93311 15.9334C6.93311 20.9039 10.9625 24.9334 15.9331 24.9334Z" fill="#FFEC65"/>
</g>
<path d="M27.8859 12.1804C27.888 12.1205 27.8888 12.0603 27.8888 12C27.8888 9.05444 25.4961 6.66663 22.5445 6.66663C20.203 6.66663 18.2132 8.16921 17.4906 10.2609C16.9716 9.9906 16.3815 9.8378 15.7555 9.8378C13.6814 9.8378 12 11.5157 12 13.5855C12 15.6554 13.6814 17.3333 15.7555 17.3333H22.5517H26.5889C28.1045 17.3333 29.3333 16.1071 29.3333 14.5945C29.3333 13.5501 28.7475 12.6423 27.8859 12.1804Z" fill="white"/>
<path d="M12.4425 21.68C12.4437 21.6429 12.4443 21.6057 12.4443 21.5683C12.4443 19.7449 10.9718 18.2667 9.15541 18.2667C7.7145 18.2667 6.49002 19.1969 6.04533 20.4917C5.72597 20.3244 5.3628 20.2298 4.97762 20.2298C3.70122 20.2298 2.6665 21.2685 2.6665 22.5499C2.6665 23.8312 3.70122 24.8699 4.97762 24.8699H9.15981H11.6443C12.577 24.8699 13.3332 24.1108 13.3332 23.1745C13.3332 22.5279 12.9727 21.9659 12.4425 21.68Z" fill="white"/>
</svg>
