<svg width="32" height="32" viewBox="0 0 32 32" fill="none" xmlns="http://www.w3.org/2000/svg">
<path d="M25.9874 7.95239C25.9883 7.92393 25.9888 7.89537 25.9888 7.86671C25.9888 6.46759 24.866 5.33337 23.481 5.33337C22.3823 5.33337 21.4486 6.04711 21.1095 7.04063C20.866 6.91225 20.5891 6.83967 20.2954 6.83967C19.3222 6.83967 18.5332 7.63668 18.5332 8.61985C18.5332 9.60303 19.3222 10.4 20.2954 10.4H23.4844H25.3787C26.09 10.4 26.6665 9.81761 26.6665 9.09913C26.6665 8.60305 26.3917 8.17183 25.9874 7.95239Z" fill="white"/>
<path d="M24.1839 23.3278C24.5151 22.9865 24.1951 22.4446 23.7208 22.4813C23.433 22.5035 23.1422 22.5148 22.8487 22.5148C16.687 22.5148 11.692 17.5238 11.692 11.367C11.692 9.47334 12.1646 7.68998 12.9982 6.1282C13.2224 5.70809 12.8529 5.19782 12.4072 5.36644C8.25346 6.93817 5.2998 10.9552 5.2998 15.6628C5.2998 21.7401 10.2225 26.6667 16.295 26.6667C19.3897 26.6667 22.1858 25.3871 24.1839 23.3278Z" fill="#777777"/>
<path d="M12.4425 21.68C12.4437 21.6429 12.4443 21.6057 12.4443 21.5683C12.4443 19.7449 10.9718 18.2667 9.15541 18.2667C7.7145 18.2667 6.49002 19.1969 6.04533 20.4917C5.72597 20.3244 5.3628 20.2298 4.97762 20.2298C3.70122 20.2298 2.6665 21.2685 2.6665 22.5499C2.6665 23.8312 3.70122 24.8699 4.97762 24.8699H9.15981H11.6443C12.577 24.8699 13.3332 24.1108 13.3332 23.1745C13.3332 22.5279 12.9727 21.9659 12.4425 21.68Z" fill="white"/>
</svg>
