<svg width="32" height="32" viewBox="0 0 32 32" fill="none" xmlns="http://www.w3.org/2000/svg">
<path d="M25.9959 14.3465C25.9986 14.2631 26 14.1793 26 14.0952C26 9.99252 22.6869 6.66663 18.6 6.66663C15.358 6.66663 12.6029 8.75953 11.6023 11.6729C10.8838 11.2964 10.0666 11.0836 9.2 11.0836C6.32813 11.0836 4 13.4207 4 16.3037C4 19.1867 6.32813 21.5238 9.2 21.5238H18.6C18.6033 21.5238 18.6066 21.5238 18.61 21.5238H24.2C26.2987 21.5238 28 19.8159 28 17.7091C28 16.2544 27.1888 14.9899 25.9959 14.3465Z" fill="#777777"/>
</svg>
