<svg width="32" height="32" viewBox="0 0 32 32" fill="none" xmlns="http://www.w3.org/2000/svg">
<path d="M27.3292 13.5465C27.3322 13.4631 27.3335 13.3794 27.3335 13.2953C27.3335 9.19259 24.0204 5.8667 19.9335 5.8667C16.6915 5.8667 13.9364 7.95961 12.9358 10.8729C12.2173 10.4965 11.4001 10.2837 10.5335 10.2837C7.66163 10.2837 5.3335 12.6208 5.3335 15.5038C5.3335 18.3867 7.66163 20.7238 10.5335 20.7238H19.9335C19.9368 20.7238 19.9401 20.7238 19.9435 20.7238H25.5335C27.6322 20.7238 29.3335 19.016 29.3335 16.9092C29.3335 15.4545 28.5223 14.19 27.3292 13.5465Z" fill="#505050"/>
<path d="M24.6624 16.7465C24.6651 16.6631 24.6665 16.5793 24.6665 16.4952C24.6665 12.3925 21.3534 9.06665 17.2665 9.06665C14.0245 9.06665 11.2694 11.1596 10.2689 14.0729C9.55029 13.6965 8.73314 13.4836 7.8665 13.4836C4.99464 13.4836 2.6665 15.8208 2.6665 18.7037C2.6665 21.5867 4.99464 23.9238 7.8665 23.9238H17.2765H22.8665C24.9652 23.9238 26.6665 22.2159 26.6665 20.1091C26.6665 18.6544 25.8554 17.3899 24.6624 16.7465Z" fill="#777777"/>
</svg>
