<svg width="32" height="32" viewBox="0 0 32 32" fill="none" xmlns="http://www.w3.org/2000/svg">
<path d="M25.9959 13.0845C25.9986 13.0003 26 12.9157 26 12.8308C26 8.68865 22.6869 5.33081 18.6 5.33081C15.358 5.33081 12.6029 7.44382 11.6023 10.3852C10.8838 10.0051 10.0666 9.79025 9.2 9.79025C6.32813 9.79025 4 12.1498 4 15.0605C4 17.9712 6.32813 20.3308 9.2 20.3308H18.6C18.6033 20.3308 18.6066 20.3308 18.61 20.3308H24.2C26.2987 20.3308 28 18.6065 28 16.4794C28 15.0108 27.1888 13.7341 25.9959 13.0845Z" fill="white"/>
<path fill-rule="evenodd" clip-rule="evenodd" d="M9.36912 22.2279C9.48291 21.8778 9.85901 21.6861 10.2092 21.7999C10.5594 21.9137 10.751 22.2898 10.6372 22.6399L9.46349 26.2523C9.34971 26.6025 8.9736 26.7941 8.62344 26.6802C8.27325 26.5666 8.08163 26.1905 8.19541 25.8403L9.36912 22.2279ZM12.8934 21.7999C12.5433 21.6861 12.1672 21.8778 12.0534 22.2279L9.78186 29.2189C9.66808 29.5693 9.85971 29.9453 10.2099 30.0592C10.5601 30.1728 10.9362 29.9813 11.0499 29.6312L13.3215 22.6399C13.4353 22.2898 13.2436 21.9137 12.8934 21.7999ZM20.9174 21.7999C20.5673 21.6861 20.1911 21.8778 20.0774 22.2279L17.8058 29.2189C17.692 29.5693 17.8837 29.9453 18.2338 30.0592C18.584 30.1728 18.9601 29.9813 19.0739 29.6312L21.3454 22.6399C21.4592 22.2898 21.2676 21.9137 20.9174 21.7999ZM14.7377 22.2279C14.8515 21.8778 15.2276 21.6861 15.5778 21.7999C15.9279 21.9137 16.1196 22.2898 16.0058 22.6399L14.2831 27.9416C14.1694 28.292 13.7933 28.4834 13.4431 28.3696C13.0929 28.256 12.9013 27.8797 13.0151 27.5296L14.7377 22.2279ZM23.5685 21.7999C23.2183 21.6861 22.8422 21.8778 22.7285 22.2279L21.0058 27.5296C20.8921 27.8797 21.0837 28.256 21.4339 28.3696C21.784 28.4834 22.1601 28.292 22.2739 27.9416L23.9965 22.6399C24.1103 22.2898 23.9187 21.9137 23.5685 21.7999ZM18.2619 21.7999C17.9117 21.6861 17.5356 21.8778 17.4219 22.2279L16.2481 25.8403C16.1343 26.1905 16.326 26.5666 16.6762 26.6802C17.0263 26.7941 17.4024 26.6025 17.5162 26.2523L18.6899 22.6399C18.8037 22.2898 18.6121 21.9137 18.2619 21.7999Z" fill="#B4F5F2"/>
</svg>
