<svg width="32" height="32" viewBox="0 0 32 32" fill="none" xmlns="http://www.w3.org/2000/svg">
<path d="M25.9959 13.0845C25.9986 13.0003 26 12.9157 26 12.8308C26 8.68865 22.6869 5.33081 18.6 5.33081C15.358 5.33081 12.6029 7.44382 11.6023 10.3852C10.8838 10.0051 10.0666 9.79025 9.2 9.79025C6.32813 9.79025 4 12.1498 4 15.0605C4 17.9712 6.32813 20.3308 9.2 20.3308H18.6C18.6033 20.3308 18.6066 20.3308 18.61 20.3308H24.2C26.2987 20.3308 28 18.6065 28 16.4794C28 15.0108 27.1888 13.7341 25.9959 13.0845Z" fill="white"/>
<path fill-rule="evenodd" clip-rule="evenodd" d="M13.5427 21.7999C13.1925 21.6861 12.8164 21.8778 12.7026 22.2279L11.5289 25.8403C11.4151 26.1905 11.6067 26.5666 11.9569 26.6802C12.3071 26.7941 12.6832 26.6025 12.797 26.2523L13.9707 22.6399C14.0845 22.2898 13.8929 21.9137 13.5427 21.7999ZM15.387 22.2279C15.5008 21.8778 15.8769 21.6861 16.227 21.7999C16.5772 21.9137 16.7689 22.2898 16.6551 22.6399L14.3835 29.6312C14.2698 29.9813 13.8937 30.1728 13.5435 30.0592C13.1933 29.9453 13.0017 29.5693 13.1155 29.2189L15.387 22.2279ZM18.0713 22.2279C18.185 21.8778 18.5611 21.6861 18.9113 21.7999C19.2615 21.9137 19.4531 22.2898 19.3393 22.6399L17.6167 27.9416C17.5029 28.292 17.1268 28.4834 16.7766 28.3696C16.4265 28.256 16.2348 27.8797 16.3486 27.5296L18.0713 22.2279Z" fill="#B4F5F2"/>
</svg>
