<svg width="32" height="32" viewBox="0 0 32 32" fill="none" xmlns="http://www.w3.org/2000/svg">
<path fill-rule="evenodd" clip-rule="evenodd" d="M26 12.8308C26 12.9157 25.9986 13.0003 25.9959 13.0845C27.1888 13.7341 28 15.0108 28 16.4794C28 18.3305 26.7115 19.8766 24.994 20.2466L26.1847 18.026C26.3823 17.697 26.1454 17.2781 25.7615 17.2781H25.6805H24.6725C24.4861 17.2781 24.3572 17.0917 24.423 16.9173L25.3134 14.5577C25.459 14.1843 25.1835 13.7813 24.7828 13.7813H24.7515H20.7029H20.6852C20.4234 13.7813 20.1937 13.9558 20.1234 14.208L18.4739 20.1283L18.4175 20.3308H9.2C6.32813 20.3308 4 17.9712 4 15.0605C4 12.1498 6.32813 9.79025 9.2 9.79025C10.0666 9.79025 10.8838 10.0051 11.6023 10.3852C12.6029 7.44382 15.358 5.33081 18.6 5.33081C22.6869 5.33081 26 8.68865 26 12.8308Z" fill="white"/>
<path fill-rule="evenodd" clip-rule="evenodd" d="M9.36912 22.2279C9.48291 21.8778 9.85901 21.6861 10.2092 21.7999C10.5594 21.9137 10.751 22.2898 10.6372 22.6399L9.46349 26.2523C9.34971 26.6025 8.9736 26.7941 8.62344 26.6802C8.27325 26.5666 8.08163 26.1905 8.19541 25.8403L9.36912 22.2279ZM12.8935 21.7999C12.5434 21.6861 12.1673 21.8778 12.0535 22.2279L9.78197 29.2189C9.66818 29.5693 9.85981 29.9453 10.21 30.0592C10.5602 30.1728 10.9363 29.9813 11.05 29.6312L13.3216 22.6399C13.4354 22.2898 13.2437 21.9137 12.8935 21.7999ZM15.5779 21.7999C15.2277 21.6862 14.8516 21.8778 14.7378 22.2279L13.0152 27.5296C12.9014 27.88 13.0931 28.256 13.4432 28.3698C13.7934 28.4834 14.1695 28.292 14.2833 27.9416L16.0059 22.64C16.1197 22.2898 15.9281 21.9137 15.5779 21.7999ZM18.262 21.7999C17.9118 21.6862 17.5357 21.8778 17.4219 22.2279L16.2482 25.8403C16.1345 26.1905 16.3261 26.5666 16.6763 26.6802C17.0264 26.7941 17.4025 26.6025 17.5163 26.2523L18.69 22.64C18.8038 22.2898 18.6122 21.9137 18.262 21.7999Z" fill="#B4F5F2"/>
<path fill-rule="evenodd" clip-rule="evenodd" d="M21.0305 14.571C20.9098 14.571 20.8042 14.6521 20.7729 14.7686L19.3716 19.9881C19.3261 20.1575 19.4537 20.3239 19.6291 20.3239H21.5104C21.6695 20.3239 21.7932 20.4624 21.7754 20.6205L21.272 25.0744C21.2387 25.3695 21.6399 25.49 21.7746 25.2254L25.2761 18.35C25.3664 18.1726 25.2376 17.9623 25.0385 17.9623H23.5006C23.3115 17.9623 23.1825 17.7709 23.2534 17.5957L24.3284 14.9377C24.3993 14.7624 24.2703 14.571 24.0812 14.571H21.0305Z" fill="#FFF686"/>
</svg>
