<svg width="32" height="32" viewBox="0 0 32 32" fill="none" xmlns="http://www.w3.org/2000/svg">
<path fill-rule="evenodd" clip-rule="evenodd" d="M26 12.7619C26 12.846 25.9986 12.9298 25.9959 13.0132C27.1888 13.6566 28 14.9211 28 16.3758C28 18.4826 26.2987 20.1905 24.2 20.1905H18.61H18.6H18.4487C18.5499 20.1201 19.1827 19.6803 19.3494 19.5701C19.6725 19.7912 20.107 19.8221 20.469 19.6137C20.8356 19.4026 21.0262 19.0038 20.9894 18.6089C21.2026 18.4838 21.2091 18.4966 21.2091 18.4966C21.7102 18.2081 21.8822 17.5671 21.5925 17.0667C21.3029 16.5665 20.6611 16.3939 20.1592 16.6829C20.1592 16.6829 20.1357 16.701 19.9319 16.8026C19.6095 16.5857 19.1785 16.5566 18.819 16.7636C18.4553 16.9731 18.2648 17.3673 18.2978 17.7592C18.1111 17.8707 17.3166 18.3529 17.3166 18.3529C17.3166 18.3529 17.3187 17.3258 17.3277 17.1849C17.6765 17.0146 17.9166 16.6573 17.9166 16.2439C17.9166 15.8256 17.6702 15.4644 17.3142 15.2967C17.3194 15.1131 17.3166 15.0461 17.3166 15.0461C17.3166 14.469 16.8461 14 16.2667 14C15.6876 14 15.2167 14.4681 15.2167 15.0461C15.2167 15.0461 15.2193 15.0681 15.2177 15.2972C14.8623 15.4651 14.6167 15.8258 14.6167 16.2439C14.6167 16.6636 14.8648 17.0259 15.2227 17.1929C15.2129 17.4679 15.2167 18.3529 15.2167 18.3529C15.2167 18.3529 14.4335 17.8918 14.2362 17.7521C14.2666 17.3626 14.0762 16.972 13.7143 16.7636C13.3535 16.5559 12.9201 16.5862 12.5972 16.8056C12.3933 16.7031 12.3741 16.6829 12.3741 16.6829C11.8731 16.3943 11.2305 16.5663 10.9409 17.0667C10.6513 17.5669 10.8223 18.2076 11.3242 18.4966C11.3242 18.4966 11.3718 18.4965 11.5432 18.6158C11.509 19.0084 11.6995 19.4037 12.0643 19.6137C12.4278 19.823 12.8651 19.7907 13.1888 19.5666C13.2882 19.6467 14.0945 20.1175 14.2199 20.1905H9.2C6.32813 20.1905 4 17.8534 4 14.9704C4 12.0875 6.32813 9.75036 9.2 9.75036C10.0666 9.75036 10.8838 9.96319 11.6023 10.3396C12.6029 7.42628 15.358 5.33337 18.6 5.33337C22.6869 5.33337 26 8.65927 26 12.7619Z" fill="white"/>
<path fill-rule="evenodd" clip-rule="evenodd" d="M15.8307 23.4492V16.789H15.6859C15.4449 16.789 15.2495 16.594 15.2495 16.3546C15.2495 16.1147 15.4446 15.9203 15.6859 15.9203H15.8307V15.1952C15.8307 14.9559 16.0263 14.762 16.2666 14.762C16.5073 14.762 16.7025 14.9571 16.7025 15.1952V15.9203H16.8473C17.0883 15.9203 17.2837 16.1152 17.2837 16.3546C17.2837 16.5945 17.0886 16.789 16.8473 16.789H16.7025V23.4492H16.8473C17.0883 23.4492 17.2837 23.6442 17.2837 23.8836C17.2837 24.1235 17.0886 24.3179 16.8473 24.3179H16.7025V25.0429C16.7025 25.2823 16.5068 25.4762 16.2666 25.4762C16.0259 25.4762 15.8307 25.2811 15.8307 25.0429V24.3179H15.6859C15.4449 24.3179 15.2495 24.123 15.2495 23.8836C15.2495 23.6437 15.4446 23.4492 15.6859 23.4492H15.8307Z" fill="white"/>
<path fill-rule="evenodd" clip-rule="evenodd" d="M13.5903 18.0778L19.3786 21.4079L19.451 21.2829C19.5715 21.0749 19.8386 21.0038 20.0467 21.1235C20.2552 21.2435 20.3267 21.509 20.206 21.7173L20.1336 21.8422L20.7637 22.2048C20.9717 22.3244 21.0425 22.5902 20.9223 22.7976C20.802 23.0053 20.5348 23.0762 20.3278 22.9571L19.6977 22.5946L19.6253 22.7196C19.5048 22.9275 19.2377 22.9987 19.0296 22.879C18.8211 22.759 18.7497 22.4935 18.8703 22.2852L18.9427 22.1602L13.1544 18.8301L13.082 18.9551C12.9615 19.1631 12.6944 19.2342 12.4864 19.1145C12.2778 18.9945 12.2064 18.729 12.327 18.5207L12.3994 18.3958L11.7693 18.0332C11.5614 17.9136 11.4906 17.6478 11.6107 17.4404C11.7311 17.2327 11.9982 17.1618 12.2052 17.2809L12.8353 17.6434L12.9077 17.5184C13.0282 17.3104 13.2954 17.2393 13.5034 17.359C13.7119 17.479 13.7834 17.7445 13.6627 17.9528L13.5903 18.0778Z" fill="white"/>
<path fill-rule="evenodd" clip-rule="evenodd" d="M19.3785 18.8301L13.5902 22.1603L13.6626 22.2852C13.7831 22.4932 13.7114 22.7593 13.5033 22.879C13.2948 22.9989 13.0283 22.9279 12.9076 22.7196L12.8352 22.5946L12.2051 22.9571C11.9972 23.0768 11.7308 23.0049 11.6106 22.7976C11.4903 22.5898 11.5623 22.3239 11.7692 22.2048L12.3993 21.8423L12.3269 21.7173C12.2064 21.5093 12.2782 21.2433 12.4862 21.1235C12.6947 21.0036 12.9613 21.0747 13.0819 21.283L13.1543 21.4079L18.9426 18.0778L18.8702 17.9528C18.7497 17.7449 18.8215 17.4788 19.0295 17.3591C19.238 17.2391 19.5046 17.3102 19.6252 17.5185L19.6976 17.6434L20.3277 17.2809C20.5357 17.1613 20.8021 17.2331 20.9222 17.4405C21.0426 17.6482 20.9706 17.9142 20.7636 18.0333L20.1335 18.3958L20.2059 18.5207C20.3264 18.7287 20.2547 18.9948 20.0466 19.1145C19.8381 19.2345 19.5716 19.1634 19.4509 18.9551L19.3785 18.8301Z" fill="white"/>
</svg>
