<svg width="32" height="32" viewBox="0 0 32 32" fill="none" xmlns="http://www.w3.org/2000/svg">
<path d="M25.9959 13.0132C25.9986 12.9297 26 12.846 26 12.7619C26 8.65921 22.6869 5.33331 18.6 5.33331C15.358 5.33331 12.6029 7.42622 11.6023 10.3396C10.8838 9.96313 10.0666 9.7503 9.2 9.7503C6.32813 9.7503 4 12.0874 4 14.9704C4 17.8533 6.32813 20.1905 9.2 20.1905H18.6C18.6033 20.1905 18.6066 20.1905 18.61 20.1905H24.2C26.2987 20.1905 28 18.4826 28 16.3758C28 14.9211 27.1888 13.6566 25.9959 13.0132Z" fill="#777777"/>
<path fill-rule="evenodd" clip-rule="evenodd" d="M7.6001 22C7.6001 21.6318 7.89858 21.3333 8.26676 21.3333H23.6001C23.9683 21.3333 24.2668 21.6318 24.2668 22C24.2668 22.3682 23.9683 22.6666 23.6001 22.6666H8.26676C7.89858 22.6666 7.6001 22.3682 7.6001 22ZM7.6001 24.6666C7.6001 24.2985 7.89858 24 8.26676 24H23.6001C23.9683 24 24.2668 24.2985 24.2668 24.6666C24.2668 25.0348 23.9683 25.3333 23.6001 25.3333H8.26676C7.89858 25.3333 7.6001 25.0348 7.6001 24.6666ZM8.26676 26.6666C7.89858 26.6666 7.6001 26.965 7.6001 27.3333C7.6001 27.7016 7.89858 28 8.26676 28H23.6001C23.9683 28 24.2668 27.7016 24.2668 27.3333C24.2668 26.965 23.9683 26.6666 23.6001 26.6666H8.26676Z" fill="#777777"/>
</svg>
